<svg width="19" height="20" viewBox="0 0 19 20" fill="none" xmlns="http://www.w3.org/2000/svg">
<path d="M9.53486 0.749767C10.8017 0.749767 12.0686 0.749767 13.3355 0.749767C16.1183 0.753021 18.3466 2.61755 18.8198 5.35414C18.8681 5.66694 18.8899 5.98327 18.8848 6.29975C18.89 8.83264 18.89 11.3658 18.8848 13.8991C18.8848 16.6838 17.0268 18.9043 14.2857 19.3872C13.965 19.4382 13.6406 19.4613 13.316 19.4562C10.7905 19.4614 8.26494 19.4614 5.73943 19.4562C2.95012 19.4562 0.733511 17.6054 0.244764 14.8636C0.195086 14.5592 0.172005 14.2511 0.17578 13.9427C0.170573 11.3829 0.170573 8.82527 0.17578 6.26981C0.17578 3.51434 2.06959 1.27561 4.78666 0.814847C5.09159 0.768421 5.39976 0.746657 5.70819 0.749767C6.98505 0.745862 8.25996 0.749767 9.53486 0.749767ZM9.54918 2.31168C8.258 2.31168 6.96617 2.30842 5.675 2.31168C3.45774 2.31753 1.74094 4.03498 1.73769 6.25354C1.73378 8.81941 1.73378 11.3853 1.73769 13.9511C1.73769 16.1834 3.45709 17.8976 5.69257 17.9008C8.25236 17.9047 10.8106 17.9047 13.3674 17.9008C15.6159 17.8976 17.3275 16.1834 17.3301 13.931C17.3327 11.3812 17.3327 8.83134 17.3301 6.28152C17.3301 4.01676 15.6178 2.31167 13.3498 2.30777C12.0834 2.3069 10.8165 2.30734 9.54918 2.30907V2.31168Z" fill="white"/>
<path d="M5.24547 10.0913C5.25098 8.95369 5.70756 7.86475 6.51501 7.06339C7.32246 6.26204 8.41483 5.81374 9.55243 5.81686C10.69 5.82374 11.7784 6.28164 12.5788 7.09007C13.3792 7.8985 13.8261 8.99142 13.8216 10.129C13.8131 11.2625 13.3567 12.3467 12.5522 13.1452C11.7476 13.9437 10.66 14.3918 9.5264 14.3917C8.38881 14.3879 7.29919 13.933 6.49662 13.1268C5.69405 12.3206 5.24409 11.2289 5.24547 10.0913ZM9.54072 7.37681C8.81804 7.3768 8.12477 7.66299 7.61254 8.17278C7.10032 8.68257 6.81082 9.37447 6.80738 10.0971C6.8084 10.8196 7.09501 11.5124 7.60471 12.0244C8.11442 12.5364 8.80589 12.8262 9.52835 12.8305C10.2509 12.8296 10.9438 12.5431 11.4558 12.0333C11.9679 11.5236 12.2576 10.832 12.2617 10.1095C12.2615 9.38682 11.9752 8.69362 11.4653 8.18152C10.9554 7.66941 10.2634 7.38008 9.54072 7.37681Z" fill="white"/>
<path d="M15.7701 5.02939C15.7706 5.34072 15.6476 5.63951 15.4279 5.86014C15.2083 6.08076 14.91 6.20517 14.5987 6.20603C14.2911 6.20399 13.9966 6.08101 13.7788 5.86365C13.5611 5.64629 13.4376 5.352 13.4351 5.04436C13.4345 4.89015 13.4643 4.73733 13.5229 4.59468C13.5815 4.45203 13.6677 4.32235 13.7766 4.21309C13.8854 4.10383 14.0147 4.01713 14.1572 3.95798C14.2996 3.89883 14.4523 3.86838 14.6065 3.86838C14.914 3.87042 15.2084 3.99331 15.4261 4.21053C15.6438 4.42775 15.7674 4.72187 15.7701 5.02939Z" fill="white"/>
</svg>
