<svg width="693" height="71" viewBox="0 0 693 71" fill="none" xmlns="http://www.w3.org/2000/svg">
<path d="M65.1 57.5L71.5 70H57.5L51.1 57.5L35.8 27.5L20.5 57.5L14.1 70H0.1L6.5 57.5L35.8 -4.76837e-06L65.1 57.5ZM75.0352 70.3V70.1H75.2352L75.0352 70.3ZM145.035 70.1V70.3L144.935 70.1H145.035ZM145.035 0.0999939H145.235L118.135 35.2L145.135 70.1H129.335L110.235 45.4L91.1352 70.1H75.3352L102.235 35.2L75.1352 0.0999939H90.9352L110.135 25L129.335 0.0999939H145.035ZM165.035 70H152.535V-4.76837e-06H165.035V70ZM207.496 -4.76837e-06C226.796 -4.76837e-06 242.496 15.7 242.496 35C242.496 54.3 226.796 70 207.496 70C188.196 70 172.496 54.3 172.496 35C172.496 15.7 188.196 -4.76837e-06 207.496 -4.76837e-06ZM207.496 57.5C219.896 57.5 229.996 47.4 229.996 35C229.996 22.6 219.896 12.5 207.496 12.5C195.096 12.5 184.996 22.6 184.996 35C184.996 47.4 195.096 57.5 207.496 57.5ZM307.496 9.6L319.996 -4.76837e-06V70H307.496V25.4L295.196 34.8L284.996 42.7L274.796 34.8L262.496 25.4V70H249.996V-4.76837e-06L262.496 9.6L284.996 26.9L307.496 9.6ZM391.077 57.5L397.477 70H383.477L377.077 57.5L361.777 27.5L346.477 57.5L340.077 70H326.077L332.477 57.5L361.777 -4.76837e-06L391.077 57.5Z" fill="white"/>
<path d="M473.242 57.5L509.942 57.6V70.1H474.442C470.942 70.1 467.642 69.3 464.642 67.8C460.242 65.6 456.642 62 454.542 57.6C453.042 54.6 452.242 51.3 452.242 47.8V0.0999939H464.742V49C465.342 53.4 468.842 56.9 473.242 57.5ZM532.418 70H519.918V-4.76837e-06H532.418V70ZM599.879 -4.76837e-06L612.379 0.0999939V70.1L599.879 60.5L554.879 25.8V70.1H542.379V0.299997L554.879 9.9L599.879 44.6V-4.76837e-06ZM641.259 12.5C637.759 12.5 634.859 15.4 634.859 18.9V25.4H679.859V37.9H634.859V51.1C634.859 54.6 637.759 57.5 641.259 57.5H692.359V70H641.259C630.859 70 622.459 61.5 622.459 51.1V18.9C622.459 8.5 630.859 -4.76837e-06 641.259 -4.76837e-06H692.359V12.5H641.259Z" fill="#F8EB25"/>
</svg>
