<svg width="21" height="19" viewBox="0 0 21 19" fill="none" xmlns="http://www.w3.org/2000/svg">
<path d="M20.9348 0.998673C20.8393 1.4556 20.7382 1.91252 20.6579 2.37221C20.0875 5.35374 19.5184 8.33574 18.9507 11.3182C18.5362 13.4994 18.1209 15.6797 17.7046 17.8591C17.6367 18.2136 17.5052 18.5126 17.1507 18.6539C16.8336 18.7785 16.5526 18.6802 16.2867 18.4988C14.6515 17.3911 13.0149 16.2834 11.3866 15.166C11.3153 15.0991 11.2207 15.0627 11.1229 15.0645C11.0251 15.0663 10.932 15.1062 10.8632 15.1757C10.0546 15.7766 9.23072 16.3596 8.41103 16.9466C7.78241 17.3994 7.17734 17.182 6.97795 16.4274C6.53026 14.7437 6.08626 13.0596 5.64596 11.375C5.63477 11.3164 5.60785 11.262 5.56808 11.2176C5.52832 11.1732 5.47722 11.1405 5.42026 11.123C3.83073 10.5211 2.24165 9.9142 0.653038 9.3022C0.140732 9.10697 -0.0821852 8.74835 0.0271992 8.28312C0.103353 7.96051 0.330429 7.78328 0.623967 7.66697C2.19319 7.04389 3.76242 6.41943 5.33165 5.79359C10.0929 3.89944 14.8546 2.00713 19.6167 0.116675C19.8213 0.0302253 20.0428 -0.00905339 20.2647 0.00175212C20.6289 0.0335982 20.8185 0.309135 20.9445 0.630365L20.9348 0.998673ZM9.66133 12.005L16.2715 16.4939L18.7901 3.28605L18.7513 3.26528L9.66133 12.005ZM7.49441 11.9067C7.61989 11.7298 7.75631 11.561 7.90287 11.4013C10.6795 8.72435 13.4584 6.04743 16.2396 3.37052C16.2992 3.31236 16.3656 3.26251 16.4279 3.20851L16.3947 3.16836L3.10519 8.46312L3.28104 8.53651C4.34165 8.9422 5.40088 9.35204 6.46564 9.7522C6.62766 9.80506 6.77288 9.89971 6.88665 10.0266C7.00042 10.1535 7.07872 10.3082 7.11365 10.475C7.23272 10.9554 7.37118 11.4428 7.49441 11.9067ZM8.30303 14.9791L9.65441 14.0099L7.6938 12.6751C7.89872 13.4477 8.0898 14.1913 8.30303 14.9791Z" fill="white"/>
</svg>
